<?xml version="1.0" encoding="UTF-8" standalone="no"?>
<!-- Created with Inkscape (http://www.inkscape.org/) -->

<svg
   width="210mm"
   height="297mm"
   viewBox="0 0 210 297"
   version="1.1"
   id="svg1"
   xml:space="preserve"
   inkscape:version="1.3 (0e150ed6c4, 2023-07-21)"
   sodipodi:docname="kilof.svg"
   xmlns:inkscape="http://www.inkscape.org/namespaces/inkscape"
   xmlns:sodipodi="http://sodipodi.sourceforge.net/DTD/sodipodi-0.dtd"
   xmlns="http://www.w3.org/2000/svg"
   xmlns:svg="http://www.w3.org/2000/svg"><sodipodi:namedview
     id="namedview1"
     pagecolor="#ffffff"
     bordercolor="#000000"
     borderopacity="0.25"
     inkscape:showpageshadow="2"
     inkscape:pageopacity="0.0"
     inkscape:pagecheckerboard="0"
     inkscape:deskcolor="#d1d1d1"
     inkscape:document-units="mm"
     inkscape:zoom="0.97890839"
     inkscape:cx="401.97837"
     inkscape:cy="610.37377"
     inkscape:window-width="1920"
     inkscape:window-height="991"
     inkscape:window-x="-9"
     inkscape:window-y="-9"
     inkscape:window-maximized="1"
     inkscape:current-layer="layer1" /><defs
     id="defs1" /><g
     inkscape:label="Warstwa 1"
     inkscape:groupmode="layer"
     id="layer1"><path
       style="fill:#ababab;fill-opacity:1;stroke-width:0.264583"
       d="m 93.653424,116.087 -5.00025,0.54057 -4.32455,2.5677 -4.05426,2.97312 -3.10826,3.91912 -3.64884,4.05426 -3.24341,4.45969 -1.48656,1.6217 -3.37855,5.27054 -2.43256,3.64883 -3.91912,4.72997 -2.16227,4.45969 -2.02713,3.10827 -3.37855,6.48682 -3.24341,7.83823 -3.91912,14.05477 -1.48656,4.59483 -0.81085,6.62196 v 11.48708 l -1.48656,8.24366 -0.13514,10.40594 -0.13515,5.8111 1.21628,4.18941 1.08114,0.40542 2.83798,-5.67596 3.37855,-11.35193 4.45969,-15.00077 c 0,0 3.37855,-10.67622 3.91912,-10.54108 0.54056,0.13514 1.89198,-5.67596 1.89198,-5.67596 l 1.89199,-4.18941 0.675714,-3.10826 c -2.180235,-2.66335 2.676171,-5.51452 4.865116,-8.51395 l 1.89198,-6.08139 1.75685,-4.72997 2.5677,-5.67597 3.78397,-7.29767 2.70285,-7.43281 2.70284,-5.27054 1.21627,-1.35142 1.62171,-1.6217 3.24341,-6.62196 3.91912,-5.67597 2.70284,-3.51369 z"
       id="path1"
       sodipodi:nodetypes="cccccccccccccccccccccccccccscccccccccccccccc" /><path
       style="fill:#000000;fill-opacity:0.81388015;stroke-width:0.264583"
       d="m 91.356012,115.54643 -4.324546,2.97313 -3.108266,3.64883 -4.054261,4.18941 -2.027132,2.97312 -3.378549,5.00026 -5.135398,7.83823 -5.675964,7.83824 -4.054263,7.97338 -2.027129,2.43256 0.810853,1.89198 -2.027132,1.62171 -1.891988,5.1354 -2.162272,3.91912 -2.162273,6.7571 -2.837982,10.54108 -3.243408,12.16278 v 4.72997 l -0.675711,3.10827 v 2.16227 l -1.621706,4.05426 v 9.05451 l -0.540567,3.37856 -1.081135,2.29741 0.540567,4.72997 1.216279,0.67571 4.594828,-9.18966 2.702841,-10.81136 2.162273,-8.24366 0.540567,-5.94625 1.891988,-1.75685 3.378552,-7.97338 3.648834,-8.78423 5.946249,-11.8925 2.973125,-10.81136 6.486819,-14.18991 5.811107,-11.08165 2.567696,-4.45969 2.432558,-3.78397 5.000255,-7.97338 2.567699,-2.83799 -0.945994,-1.75684 z"
       id="path2" /><path
       style="fill:#96360f;fill-opacity:0.92113566;stroke-width:0.264583"
       d="m 145.95339,249.2019 -88.382886,-71.76042 0.405427,-3.91912 1.756846,-1.48656 2.027129,-0.67571 1.621705,0.54057 1.891988,1.21628 32.569229,27.0284 50.407972,41.48861 1.08114,1.48656 2.5677,1.89199 0.13514,2.56769 -0.81085,1.35142 -1.21628,0.81086 -2.83798,0.81085 z"
       id="path3" /><path
       style="fill:#0f8996;fill-opacity:0.47634068;stroke-width:0.264583"
       d="m 54.597379,169.73839 2.70284,0.13514 4.054261,-2.16227 2.70284,-1.89199 1.216279,-0.54057 2.973126,-0.40543 1.081135,-1.6217 -2.567699,-0.13514 -1.891988,1.21628 -3.108267,1.6217 -4.054261,1.89199 -2.567699,0.40543 z"
       id="path4" /><path
       style="fill:#0f8996;fill-opacity:0.476341;stroke-width:0.264583"
       d="m 58.111072,161.35958 -1.35142,-2.02713 -0.270286,-1.6217 0.945997,-1.75685 -0.945997,-2.29741 -0.675708,1.89198 -1.081135,1.08114 -0.405427,2.70284 0.540568,2.16227 1.216279,0.67571 0.81085,1.62171 1.081138,-1.08114 z"
       id="path5" /><path
       style="fill:#0f8996;fill-opacity:0.476341;stroke-width:0.264583"
       d="m 45.407722,178.52262 2.162273,5.1354 -3.378552,-1.62171 z"
       id="path6" /><path
       style="fill:#0f8996;fill-opacity:0.476341;stroke-width:0.318928"
       d="m 77.197482,193.31271 1.081138,-3.9272 0.270282,4.71264 z"
       id="path7" /><circle
       id="path8"
       style="fill:#0e0b0a;stroke:#000000;stroke-width:0.264583"
       cx="64.407333"
       cy="162.83397"
       r="0.012728479" /><path
       style="fill:#000000;fill-opacity:0.63091481;stroke-width:0.264583"
       d="m 88.583975,194.27316 c 0.409657,0.20592 1.13211,0.34572 1.337839,0.86004 0.02715,0.0679 -0.05762,0.42018 0,0.4778 0.02252,0.0225 0.06707,-0.0142 0.09556,0 0.102724,0.0514 0.196998,0.11938 0.286679,0.19112 0.124367,0.0995 0.269621,0.17406 0.382241,0.28668 0.05036,0.0504 0.04519,0.14075 0.09556,0.19112 0.04505,0.0451 0.138113,-0.0353 0.191119,0 0.07496,0.05 0.110535,0.15083 0.191119,0.19112 0.05698,0.0285 0.130683,-0.0201 0.191119,0 0.08178,0.0273 0.416648,0.22553 0.477801,0.28668 0.02252,0.0225 -0.0265,0.0779 0,0.0956 0.08381,0.0559 0.202867,0.0397 0.286679,0.0956 0.0265,0.0177 -0.02252,0.073 0,0.0956 0.02212,0.0221 0.350483,0.18053 0.382241,0.19112 0.143338,0.0478 0.09556,-0.0956 0.286678,0 0.02849,0.0142 -0.02252,0.073 0,0.0956 0.0059,0.26907 0.215453,0.0243 0.286679,0.0956 0.02252,0.0225 -0.02252,0.073 0,0.0956 0.04505,0.0451 0.134138,-0.0285 0.191119,0 0.102724,0.0514 0.20547,0.10991 0.286681,0.19112 0.02252,0.0225 -0.01767,0.069 0,0.0956 0.04998,0.075 0.150829,0.11053 0.191119,0.19112 0.02849,0.057 -0.04505,0.14607 0,0.19112 0.04505,0.045 0.146072,-0.0451 0.19112,0 0.07122,0.0712 0.03512,0.20609 0.09556,0.28668 0.04274,0.057 0.151612,0.0363 0.191122,0.0956 0.03534,0.053 -0.02849,0.13414 0,0.19112 0.01423,0.0285 0.07304,-0.0225 0.09556,0 0.05036,0.0504 0.04519,0.14075 0.09556,0.19112 0.08121,0.0812 0.205467,0.1099 0.286679,0.19112 0.08121,0.0812 0.119374,0.19699 0.191119,0.28667 0.23658,0.29573 0.161732,0.11133 0.4778,0.38225 1.598343,1.37 -0.441068,-0.34551 0.573358,0.66891 0.02252,0.0225 0.07304,-0.0225 0.09556,0 0.08121,0.0812 0.122208,0.1948 0.191119,0.28668 0.219535,0.29272 -0.06112,-0.15668 0.286679,0.19112 0.05036,0.0504 0.05605,0.13186 0.09556,0.19112 0.08477,0.12715 0.292648,0.19709 0.382241,0.28668 0.197715,0.19772 -0.302138,-0.008 0.09556,0.19112 0.02849,0.0142 0.07304,-0.0225 0.09556,0 0.02252,0.0225 -0.0265,0.0779 0,0.0956 0.107561,0.0717 0.535387,0.28668 0.66892,0.28668"
       id="path9" /><path
       style="fill:#000000;fill-opacity:0.630915;stroke-width:0.264583"
       d="m 86.29054,195.03764 c 0.05875,0.62236 0.544235,0.86414 0.860039,1.33784 0.03951,0.0593 0.03994,0.14662 0.09556,0.19112 0.327562,0.26205 1.284853,0.7023 1.720077,0.76448 0.451308,0.0645 0.849331,0.0902 1.242277,0.28668 0.244414,0.12221 0.54778,0.33108 0.66892,0.57336 0.01423,0.0285 -0.02252,0.073 0,0.0956 0.02252,0.0225 0.07303,-0.0225 0.09556,0 0.02252,0.0225 -0.02252,0.073 0,0.0956 0.05036,0.0504 0.151612,0.0363 0.191119,0.0956 0.302784,0.45417 -0.367011,-0.0803 0.09556,0.38224 0.02252,0.0225 0.07303,-0.0225 0.09556,0 0.04505,0.045 -0.05698,0.16263 0,0.19112 0.08547,0.0427 0.21911,-0.0676 0.286682,0 0.03336,0.0333 -0.03967,0.26684 0,0.28667 0.05698,0.0285 0.134138,-0.0285 0.191119,0 0.20497,0.10249 0.297124,0.33969 0.382238,0.38225 0.02849,0.0142 0.07304,-0.0225 0.09556,0 0.02252,0.0225 -0.02252,0.073 0,0.0956 0.03185,0.0318 0.254828,0.0637 0.286681,0.0956 0.02252,0.0225 -0.02849,0.0813 0,0.0956 0.05698,0.0285 0.134139,-0.0285 0.191119,0 0.02849,0.0142 -0.01423,0.0671 0,0.0956 0.064,0.12799 0.22797,0.13241 0.286679,0.19112 0.02252,0.0225 -0.02252,0.073 0,0.0956 0.02252,0.0225 0.06906,-0.0177 0.09556,0 0.207,0.138 0.350843,0.36654 0.57336,0.4778 0.02849,0.0142 0.07304,-0.0225 0.09556,0 0.02252,0.0225 -0.02252,0.073 0,0.0956 0.114551,0.11455 0.382241,-0.15599 0.382241,0.0956"
       id="path10" /><path
       style="fill:#000000;fill-opacity:0.83596212;stroke-width:0.264583"
       d="m 85.526061,196.75772 c 0.265899,0.22995 0.789565,0.31177 1.051158,0.57336 0.02252,0.0225 -0.01423,0.0671 0,0.0956 0.07652,0.15304 0.286528,0.23867 0.382238,0.38224 0.03951,0.0593 0.0452,0.14075 0.09556,0.19112 0.02252,0.0225 0.06707,-0.0142 0.09556,0 0.0533,0.0266 0.356383,0.26082 0.382238,0.28668 0.02252,0.0225 -0.02252,0.073 0,0.0956 0.135695,0.13569 0.412819,0.17965 0.57336,0.28668 0.101339,0.0676 0.328131,0.27402 0.382239,0.38224 0.01423,0.0285 -0.02849,0.0813 0,0.0956 0.05698,0.0285 0.130683,-0.0201 0.191119,0 0.298273,0.0994 -0.03185,0.0637 0.09556,0.19111 0.10073,0.10073 0.281512,0.0904 0.382241,0.19112 0.02252,0.0225 -0.03022,0.0855 0,0.0956 0.09066,0.0302 0.196022,-0.0302 0.286679,0 0.03022,0.0101 -0.01423,0.0671 0,0.0956 0.04029,0.0806 0.110538,0.15082 0.191119,0.19111 0.23536,0.11768 -0.08626,-0.27738 0.286681,0.0956 0.02252,0.0225 -0.02849,0.0813 0,0.0956 0.05698,0.0285 0.134139,-0.0285 0.19112,0 0.191119,0.0956 0.286678,0.38224 0.477797,0.4778 0.223721,0.11186 0.34049,0.17025 0.57336,0.28668 0.102111,0.0511 0.08901,0.14007 0.191119,0.19112 0.05698,0.0285 0.134139,-0.0285 0.191122,0 0.114671,0.0573 0.172006,0.22935 0.286679,0.28668 0.05698,0.0285 0.146071,-0.045 0.191119,0 0.197718,0.19772 -0.302138,-0.008 0.09556,0.19112 0.131812,0.0659 0.08548,-0.11573 0.191119,0.0956 0.06591,0.13181 -0.115726,0.0855 0.09556,0.19112 0.362911,0.18146 -0.480793,-0.67191 0.382241,0.19112 0.02252,0.0225 -0.01423,0.0671 0,0.0956 0.198848,0.3977 -0.0066,-0.10216 0.191119,0.0956 0.02252,0.0225 0,0.0637 0,0.0956 0.03185,0.0637 0.0363,0.15161 0.09556,0.19112 0.07951,0.053 0.219109,-0.0676 0.286681,0 0.05036,0.0504 0.04519,0.14076 0.09556,0.19112 0.02252,0.0225 0.06371,0 0.09556,0 0.06371,0.0318 0.151609,0.0363 0.191119,0.0956 0.03534,0.053 -0.04505,0.14607 0,0.19112 0.652524,0.21751 0.03072,-0.0648 0.382239,0.28668 0.02252,0.0225 0.07304,-0.0225 0.09556,0 0.05036,0.0504 0.04519,0.14075 0.09556,0.19112 0.03542,0.0354 0.323202,0.066 0.382239,0.0956 0.169696,0.0848 0.30009,0.323 0.4778,0.38224 0.09065,0.0302 0.219107,-0.0676 0.286679,0 0.02252,0.0225 -0.01423,0.0671 0,0.0956 0.198847,0.39769 -0.0066,-0.10216 0.191119,0.0956 0.02252,0.0225 -0.01423,0.0671 0,0.0956 0.19885,0.39769 -0.0066,-0.10216 0.191119,0.0956 0.02252,0.0225 -0.02252,0.073 0,0.0956 0.02252,0.0225 0.07304,-0.0225 0.09556,0 0.04505,0.0451 -0.02849,0.13414 0,0.19112 0.06819,0.13637 0.191121,0.1158 0.191121,0.28668"
       id="path11" /><path
       style="fill:#000000;fill-opacity:0.69400632;stroke-width:0.264583"
       d="m 120.8832,226.28571 c -0.0281,-0.3814 -0.0112,-0.82446 0.38224,-0.9556 0.0604,-0.0201 0.13812,0.0353 0.19112,0 0.0593,-0.0395 0.0452,-0.14075 0.0956,-0.19112 0.0676,-0.0676 0.20717,0.053 0.28668,0 0.0593,-0.0395 0.0452,-0.14075 0.0956,-0.19112 0.0451,-0.045 0.14607,0.0451 0.19112,0 0.0319,-0.0318 0.0637,-0.25482 0.0956,-0.28667 0.0478,-0.0478 0.14334,-0.0478 0.19112,-0.0956 0.0225,-0.0225 -0.0225,-0.073 0,-0.0956 0.0177,-0.0177 0.34101,-0.0818 0.38224,-0.0956 0.18012,-0.06 0.313,-0.29984 0.4778,-0.38223 0.0855,-0.0427 0.20121,0.0427 0.28668,0 0.0637,-0.0319 0.0318,-0.15927 0.0956,-0.19112 0.0835,-0.0418 0.30155,0.0202 0.38224,0 0.17201,-0.043 0.33212,-0.14257 0.4778,-0.19113 0.0918,-0.0306 0.29052,0.0459 0.38224,0 0.13796,-0.069 0.24427,-0.12213 0.38224,-0.19111 0.057,-0.0285 0.14607,0.045 0.19112,0 0.0225,-0.0225 -0.0225,-0.073 0,-0.0956 0.045,-0.0451 0.14607,0.045 0.19112,0 0.0712,-0.0712 -0.0956,-0.0927 -0.0956,-0.19112"
       id="path12" /><path
       style="fill:#000000;fill-opacity:0.694006;stroke-width:0.264583"
       d="m 149.16892,242.72201 c -0.19716,0.11303 -0.56125,-0.10162 -0.76448,0 -0.28136,0.14067 -1.87521,0.51378 -2.19788,0.19111 -0.17645,0.41206 -0.76457,0.0956 -1.05115,0.19113 -0.13515,0.045 -0.24404,0.15657 -0.38224,0.19112 -0.0618,0.0155 -0.13414,-0.0285 -0.19112,0 -0.0806,0.0403 -0.11616,0.14114 -0.19112,0.19112 -0.0265,0.0177 -0.073,-0.0225 -0.0956,0 -0.0676,0.0676 0.0302,0.19602 0,0.28668 -0.0173,0.0519 -0.47542,0.28191 -0.4778,0.28668 -0.0285,0.057 0.0285,0.13413 0,0.19112 -0.0143,0.0285 -0.073,-0.0225 -0.0956,0 -0.0225,0.0225 0.0225,0.073 0,0.0956 -0.0504,0.0504 -0.14076,0.0452 -0.19112,0.0956"
       id="path13" /><path
       style="fill:#000000;fill-opacity:0.694006;stroke-width:0.264583"
       d="m 142.86197,245.49324 c 0.0578,0.56026 -0.0956,1.07327 -0.0956,1.62452"
       id="path14" /><path
       style="fill:#301806;fill-opacity:0.69400632;stroke-width:0.264583"
       d="m 143.79368,244.13151 c -0.40448,0.38325 -1.05145,0.76535 -1.24228,1.33784 -0.0475,0.14246 0.0443,0.66199 0.0956,0.76448 0.0273,0.0546 0.28417,0.19363 0.19112,0.28668 -0.0225,0.0225 -0.0637,0 -0.0956,0"
       id="path15" /><path
       style="fill:#422009;fill-opacity:0.694006;stroke-width:0.289417"
       d="m 151.79409,245.36978 c -0.14917,-0.0977 -0.28075,-0.22018 -0.44754,-0.29297 -0.0668,-0.0291 -0.153,0.0205 -0.22377,0 -0.17792,-0.0517 -0.27754,-0.21878 -0.44754,-0.29297 -0.13341,-0.0582 -0.4586,-0.10732 -0.55943,-0.19531 -0.0264,-0.023 0.0264,-0.0746 0,-0.0977 -0.0791,-0.0691 -0.22376,0 -0.33564,0 -0.26155,0 -0.98892,-0.10554 -1.23074,0 -0.0745,0.0326 -0.16481,0.0462 -0.22377,0.0977 -0.0264,0.023 0.0334,0.0831 0,0.0977 -0.0668,0.0291 -0.15303,-0.0205 -0.22378,0 -0.10013,0.0291 -0.12942,0.15414 -0.22377,0.19532 -0.0334,0.0145 -0.0952,-0.0291 -0.11194,0 -0.05,0.0874 0.0791,0.22392 0,0.29297 -0.0264,0.023 -0.0854,-0.023 -0.11194,0 -0.0623,0.0544 -0.41904,0.56105 -0.44754,0.58594 -0.11949,0.10428 -0.31548,0.17769 -0.44755,0.29297 -0.0591,0.0515 -0.0529,0.14384 -0.11194,0.19532 -0.22788,0.1989 -0.19405,0.12156 -0.44754,0.19531 -0.22264,0.0648 -0.0522,0.0912 -0.11194,0.19531 -0.11103,0.19371 -0.47066,0.23566 -0.55944,0.39063 -0.049,0.0853 0.0236,0.30816 0,0.39063 -0.0879,0.30672 -0.22376,0.098 -0.22376,0.39063 0,0.19773 -0.0921,0.62029 0,0.78124 0.008,0.0139 0.25502,0.0819 0.33565,0.29297 0.0235,0.0617 -0.0668,0.1662 0,0.19532 0.0667,0.0291 0.153,-0.0205 0.22377,0 0.34923,0.10158 -0.0373,0.0651 0.11194,0.19531 0.0528,0.0461 0.1617,-0.0361 0.22377,0 0.0879,0.0511 0.136,0.14425 0.22377,0.19532 0.0311,0.0181 0.0854,-0.023 0.11194,0 0.0264,0.023 -0.0264,0.0746 0,0.0977 0.0528,0.0461 0.153,-0.0205 0.22377,0 0.81043,0.2358 -0.1764,-0.0281 0.33566,0.19532 0.0895,0.039 0.24614,-0.039 0.33566,0 0.0471,0.0205 0.0647,0.077 0.11194,0.0977 0.0667,0.0291 0.17102,-0.0461 0.22377,0 0.0264,0.023 -0.0334,0.0831 0,0.0977 0.19011,0.083 1.01317,0.038 1.23074,0 0.47238,-0.0825 0.84973,-0.36424 1.23073,-0.58594 0.30867,-0.17962 0.82895,-0.37283 1.00697,-0.6836 0.0426,-0.0742 0.18268,-0.35476 0.22377,-0.39063 0.0264,-0.023 0.0854,0.023 0.11194,0 0.0888,-0.0774 -0.0569,-0.38891 0,-0.48827 0.1706,-0.29782 0.0888,0.17861 0.22377,-0.29298 0.0951,-0.33187 0,-0.84067 0,-1.17188 0,-0.65633 0.41032,0.0978 0,-0.97657 z"
       id="path17" /></g></svg>
