<?xml version="1.0" encoding="UTF-8" standalone="no"?>
<!-- Created with Inkscape (http://www.inkscape.org/) -->

<svg
   width="102.80072mm"
   height="130.64371mm"
   viewBox="0 0 102.80072 130.64371"
   version="1.1"
   id="svg1"
   xml:space="preserve"
   sodipodi:docname="plansza.svg"
   xmlns:inkscape="http://www.inkscape.org/namespaces/inkscape"
   xmlns:sodipodi="http://sodipodi.sourceforge.net/DTD/sodipodi-0.dtd"
   xmlns="http://www.w3.org/2000/svg"
   xmlns:svg="http://www.w3.org/2000/svg"><sodipodi:namedview
     id="namedview1"
     pagecolor="#ffffff"
     bordercolor="#000000"
     borderopacity="0.25"
     inkscape:showpageshadow="2"
     inkscape:pageopacity="0.0"
     inkscape:pagecheckerboard="0"
     inkscape:deskcolor="#d1d1d1"
     inkscape:document-units="mm"
     inkscape:zoom="0.4894542"
     inkscape:cx="1921.5281"
     inkscape:cy="1982.8209"
     inkscape:window-width="1920"
     inkscape:window-height="991"
     inkscape:window-x="-9"
     inkscape:window-y="-9"
     inkscape:window-maximized="1"
     inkscape:current-layer="layer1" /><defs
     id="defs1" /><g
     inkscape:label="Warstwa 1"
     inkscape:groupmode="layer"
     id="layer1"
     transform="translate(-151.74936,-596.0319)"><g
       id="g65"
       transform="translate(-32.163804,-28.379826)"><g
         id="g64"><path
           style="fill:#005000;fill-opacity:1;stroke:#000000;stroke-width:0.264583;stroke-opacity:1"
           d="m 209.6583,686.50193 0.19112,3.44014 -0.57336,0.9556 -1.52896,0.19113 -0.76448,2.29344 -1.33784,2.29343 -1.91119,1.33784 -2.67568,0.57335 -3.44015,-0.19111 -2.48456,-0.38224 -1.33784,-3.24903 -2.67567,-2.29344 -2.29344,-1.33784 -0.9556,-2.48456 0.76448,-1.9112 0.9556,-0.76448 1.14672,-1.14671 -0.9556,-2.48457 -2.29344,-1.72005 -2.67567,-4.5869 -0.76448,-3.24903 0.76448,-4.20463 0.57336,-2.29343 2.10231,-3.05792 2.8668,-1.33784 4.20463,-1.91119 1.14672,-0.57335 4.39575,-0.19114 3.8224,-2.86679 1.52896,-3.44016 1.33783,-3.63128 0.9556,-4.01349 0.76448,-2.86681 1.33784,-2.29343 1.72008,-1.72009 1.72007,-1.52895 3.63128,-1.91119 1.91119,-1.33784 1.9112,-1.14673 3.63127,-1.33784 4.96912,1.33784 4.20463,2.29344 2.67568,2.29343 2.67567,1.33784 4.58687,-0.57335 4.20464,-0.76449 5.54247,-0.57335 c 0,0 2.86679,1.52898 3.63127,1.52898 0.76448,0 3.63128,3.05789 3.63128,3.05789 l 2.29343,3.44017 1.14672,3.24903 2.29344,2.86678 1.52894,3.05793 v 3.24903 l 3.24906,4.39576 2.86679,0.57335 3.24903,2.29343 2.48457,5.7336 0.95559,5.16023 -1.72008,4.96911 -2.67568,2.48457 -5.35135,4.39573 -3.82239,3.82241 -4.96912,3.24903 c 0,0 -4.39575,1.33784 -5.16023,1.72008 -0.76448,0.38225 -4.58687,0.19111 -4.58687,0.19111 l -4.20463,-2.86678 -3.24904,-4.58687 -3.82239,-2.10233 -4.77799,-0.19111 -2.29344,0.76446 -5.16023,2.29344 c 0,0 -3.24904,0.38224 -4.01352,0.19113 -0.76447,-0.19113 -5.54247,-1.52895 -5.54247,-1.52895 l -4.20463,-2.10232 -3.8224,0.76449 z"
           id="path63" /><path
           style="fill:#773a3a;fill-opacity:1;stroke:#000000;stroke-width:0.264583;stroke-opacity:1"
           d="m 212.33397,753.96716 6.30695,-1.33784 c 0,0 3.63128,-3.82238 4.39576,-4.77798 0.76448,-0.95559 4.58687,-13.5695 4.58687,-13.5695 l -0.38224,-30.38803 -1.33784,-4.96911 -3.44015,-4.58687 -5.54247,-3.82238 -5.54247,-3.44017 -4.39576,-2.48457 -4.39575,-0.19111 -0.19112,-0.76448 h 4.39575 l -5.16023,-3.24903 0.9556,-0.9556 5.16023,4.01352 -2.10232,-7.45368 -3.05791,-10.32045 0.76448,-0.19113 4.96911,17.39191 4.77799,3.44014 3.63128,2.29343 -1.72008,-3.05789 -0.57336,-5.5425 -1.72008,-5.54246 0.76448,-0.38224 1.72008,5.16024 0.57336,3.82239 0.9556,3.44016 2.86679,2.67568 5.35135,3.82238 -0.57336,-7.07144 -0.76448,-4.58687 -1.33783,-7.07141 -1.9112,-4.96911 -5.35135,-7.83593 -4.58687,-4.58687 0.38224,-1.33784 3.24903,3.44017 1.9112,2.10232 3.63127,5.35133 -0.57336,-4.96911 -1.33783,-6.11582 -1.9112,-4.96911 -0.57336,-2.29343 1.14672,-0.19111 0.76448,3.24903 1.91119,6.68917 1.14672,5.54249 0.38224,2.86679 1.9112,2.86678 2.29343,1.72008 0.57336,-8.60038 0.76448,-5.92471 0.19112,-4.01352 -0.76448,-4.96911 -1.14672,-4.96911 -0.76448,-4.77798 0.19113,-3.82241 0.95559,-1.52895 0.9556,0.57335 -0.76448,1.52898 -0.19112,2.48454 0.9556,5.7336 0.57336,3.24903 0.57336,2.48454 0.38224,3.82241 2.10232,-3.63127 3.63127,-4.58687 1.52896,0.57335 -3.44016,4.20463 -2.10231,3.24903 -1.14672,5.54249 -1.14672,10.12933 -0.19112,3.05793 1.52896,11.46717 3.05791,-4.778 3.8224,-5.16023 2.67567,-6.8803 3.05792,-8.02704 1.9112,-5.35135 0.57335,-4.77798 1.52896,-8.60039 h 1.14672 l -0.57336,4.01352 -1.33784,7.26255 -0.57336,4.77798 -2.86679,8.02703 -2.48456,6.11582 -2.29343,5.35136 -3.63128,5.9247 3.8224,2.67568 5.73359,-0.19111 4.39575,-2.86678 3.63127,-5.54249 2.29344,-6.30696 1.33784,-6.8803 1.52895,-6.30695 1.14672,-7.6448 0.9556,-0.95559 0.38224,2.10233 -0.57336,3.44016 -1.9112,9.17374 -0.95559,4.01352 -1.14672,5.73357 -2.67568,8.21814 -4.20463,4.20466 -2.8668,1.52894 -1.72007,3.05793 -1.72008,11.65828 -0.76448,6.88033 c 0,0 1.52896,-1.52897 2.10232,-2.48457 0.57336,-0.9556 4.01351,-5.73357 4.01351,-5.73357 l 4.20463,-5.7336 5.16024,-6.88031 3.63127,-4.20465 3.05791,-4.58687 0.57336,-4.96911 -1.14672,-7.64477 0.76448,-2.86681 0.19113,3.44016 0.76447,4.01352 0.19112,4.58687 1.33784,2.67568 2.67568,-1.33784 4.01351,-1.72008 2.29344,-1.52895 0.95559,-4.5869 v -3.82238 h 0.76449 l 0.19111,2.29344 v 3.24903 2.67567 l 1.91119,1.14674 6.30695,0.1911 0.19114,0.9556 h -4.77801 l -3.63127,-0.76449 -2.10233,-0.19111 -4.20462,3.24903 -3.24903,0.9556 -3.05792,1.91122 -7.64478,10.51158 -5.7336,9.74709 -7.8359,9.17374 -0.76448,11.27606 1.33784,8.21814 3.24903,13.95175 4.39576,8.40928 10.12934,3.44014 -9.55599,0.95559 -3.63127,-0.57335 h -5.54247 l -5.35135,0.38224 h -6.11583 l -4.77799,0.9556 -4.96912,0.19113 z"
           id="path62" /><path
           style="fill:#005200;fill-opacity:1;stroke:none;stroke-width:0.264583;stroke-opacity:1"
           d="m 203.73359,684.59071 v 3.05793 l -1.52896,1.91119 c 0,0 -1.72008,0.38224 -2.67568,0.57337 -0.95559,0.19111 -2.86679,1.33784 -2.86679,1.33784 l -3.05791,-0.95559 -0.76448,-4.01352 -0.57336,-5.16025 -1.33784,-2.67568 -0.76448,-4.39573 v -4.778 l 0.57336,-4.39577 1.9112,-1.91119 c 0,0 3.44015,-0.76446 4.20463,-0.76446 0.76448,0 3.82239,-0.95562 3.82239,-0.95562 l 3.63128,-1.33781 h 4.01351 l 2.67568,1.33781 1.52895,2.29346 4.58688,4.96909 1.14671,3.44016 v 3.82239 l -2.29343,1.52897 -4.39575,0.76449 -3.63128,1.72005 z"
           id="path64" /><path
           style="fill:#005200;fill-opacity:1;stroke:none;stroke-width:0.264583;stroke-opacity:1"
           d="m 221.19195,668.26715 v 3.05793 l -1.52896,1.91119 c 0,0 -1.72008,0.38224 -2.67568,0.57337 -0.95559,0.19111 -2.86679,1.33784 -2.86679,1.33784 l -3.05791,-0.95559 -0.76448,-4.01352 -0.57336,-5.16025 -1.33784,-2.67568 -0.76448,-4.39573 v -4.778 l 0.57336,-4.39577 1.9112,-1.91119 c 0,0 3.44015,-0.76446 4.20463,-0.76446 0.76448,0 3.82239,-0.95562 3.82239,-0.95562 l 3.63128,-1.33781 h 4.01351 l 2.67568,1.33781 1.52895,2.29346 4.58688,4.96909 1.14671,3.44016 v 3.82239 l -2.29343,1.52897 -4.39575,0.76449 -3.63128,1.72005 z"
           id="path64-0" /><path
           style="fill:#005200;fill-opacity:1;stroke:none;stroke-width:0.264583;stroke-opacity:1"
           d="m 242.31786,668.41522 v 3.05793 l -1.52896,1.91119 c 0,0 -1.72008,0.38224 -2.67568,0.57337 -0.95559,0.19111 -2.86679,1.33784 -2.86679,1.33784 l -3.05791,-0.95559 -0.76448,-4.01352 -0.57336,-5.16025 -1.33784,-2.67568 -0.76448,-4.39573 v -4.778 l 0.57336,-4.39577 1.9112,-1.91119 c 0,0 3.44015,-0.76446 4.20463,-0.76446 0.76448,0 3.82239,-0.95562 3.82239,-0.95562 l 3.63128,-1.33781 h 4.01351 l 2.67568,1.33781 1.52895,2.29346 4.58688,4.96909 1.14671,3.44016 v 3.82239 l -2.29343,1.52897 -4.39575,0.76449 -3.63128,1.72005 z"
           id="path64-8" /><path
           style="fill:#005200;fill-opacity:1;stroke:none;stroke-width:0.264583;stroke-opacity:1"
           d="m 250.9337,667.95107 -2.01816,2.29737 -2.41003,0.42677 c 0,0 -1.54454,-0.84805 -2.38861,-1.33513 -0.84405,-0.48709 -3.03672,-0.88693 -3.03672,-0.88693 l -1.66669,-2.73607 2.07449,-3.51984 2.9749,-4.25522 0.7608,-2.89314 2.32675,-3.80698 3.15337,-3.58964 3.33188,-2.92406 2.6972,-0.1745 c 0,0 3.08905,1.6961 3.66339,2.20064 0.57435,0.50454 3.5024,1.80476 3.5024,1.80476 l 3.61104,1.39149 3.01529,2.64883 1.12727,2.77097 -0.36496,2.73211 0.16656,6.76044 -1.40893,3.34135 -2.5227,2.8717 -2.7321,-0.36493 -3.80701,-2.32675 -3.86332,-1.10432 z"
           id="path64-7" /><path
           style="fill:#005200;fill-opacity:1;stroke:none;stroke-width:0.264583;stroke-opacity:1"
           d="m 234.18444,647.80912 -2.01816,2.29737 -2.41003,0.42677 c 0,0 -1.54454,-0.84805 -2.38861,-1.33513 -0.84405,-0.48709 -3.03672,-0.88693 -3.03672,-0.88693 l -1.66669,-2.73607 2.07449,-3.51984 2.9749,-4.25522 0.7608,-2.89314 2.32675,-3.80698 3.15337,-3.58964 3.33188,-2.92406 2.6972,-0.1745 c 0,0 3.08905,1.6961 3.66339,2.20064 0.57435,0.50454 3.5024,1.80476 3.5024,1.80476 l 3.61104,1.39149 3.01529,2.64883 1.12727,2.77097 -0.36496,2.73211 0.16656,6.76044 -1.40893,3.34135 -2.5227,2.8717 -2.7321,-0.36493 -3.80701,-2.32675 -3.86332,-1.10432 z"
           id="path64-7-2" /><path
           style="fill:#005200;fill-opacity:1;stroke:none;stroke-width:0.326893;stroke-opacity:1"
           d="m 216.64278,654.03853 -0.67987,3.36281 -2.46388,1.68952 c 0,0 -2.37881,-0.0434 -3.69567,-0.0909 -1.31683,-0.0475 -4.12048,0.69833 -4.12048,0.69833 l -3.86546,-1.87532 -0.12717,-4.61979 0.38266,-5.82931 -1.18921,-3.30315 -0.0422,-5.0401 1.06228,-5.25437 1.74191,-4.67946 2.97363,-1.58646 c 0,0 4.75762,0.0868 5.77709,0.29292 1.01949,0.20611 5.30987,-0.0203 5.30987,-0.0203 l 5.13998,-0.49218 5.35227,1.08208 3.27074,2.19258 1.52907,2.93434 5.01212,6.70119 0.76441,4.0923 -0.84982,4.20351 -3.39837,1.06306 -6.03198,-0.34442 -5.22496,0.91252 z"
           id="path64-71" /></g><path
         style="fill:#005200;fill-opacity:1;stroke:none;stroke-width:0.264583;stroke-opacity:1"
         d="m 272.18879,681.4372 v 3.05793 l -1.52896,1.91119 c 0,0 -1.72008,0.38224 -2.67568,0.57337 -0.95559,0.19111 -2.86679,1.33784 -2.86679,1.33784 l -3.05791,-0.95559 -0.76448,-4.01352 -0.57336,-5.16025 -1.33784,-2.67568 -0.76448,-4.39573 v -4.778 l 0.57336,-4.39577 1.9112,-1.91119 c 0,0 3.44015,-0.76446 4.20463,-0.76446 0.76448,0 3.82239,-0.95562 3.82239,-0.95562 l 3.63128,-1.33781 h 4.01351 l 2.67568,1.33781 1.52895,2.29346 4.58688,4.96909 1.14671,3.44016 v 3.82239 l -2.29343,1.52897 -4.39575,0.76449 -3.63128,1.72005 z"
         id="path64-3" /></g></g></svg>
