<?xml version="1.0" encoding="UTF-8" standalone="no"?>
<!-- Created with Inkscape (http://www.inkscape.org/) -->

<svg
   width="53.128075mm"
   height="111.78954mm"
   viewBox="0 0 53.128075 111.78954"
   version="1.1"
   id="svg1"
   xml:space="preserve"
   sodipodi:docname="plansza.svg"
   inkscape:version="1.3 (0e150ed6c4, 2023-07-21)"
   xmlns:inkscape="http://www.inkscape.org/namespaces/inkscape"
   xmlns:sodipodi="http://sodipodi.sourceforge.net/DTD/sodipodi-0.dtd"
   xmlns="http://www.w3.org/2000/svg"
   xmlns:svg="http://www.w3.org/2000/svg"><sodipodi:namedview
     id="namedview1"
     pagecolor="#ffffff"
     bordercolor="#000000"
     borderopacity="0.25"
     inkscape:showpageshadow="2"
     inkscape:pageopacity="0.0"
     inkscape:pagecheckerboard="0"
     inkscape:deskcolor="#d1d1d1"
     inkscape:document-units="mm"
     inkscape:zoom="0.97890839"
     inkscape:cx="448.96949"
     inkscape:cy="726.83002"
     inkscape:window-width="1920"
     inkscape:window-height="991"
     inkscape:window-x="-9"
     inkscape:window-y="-9"
     inkscape:window-maximized="1"
     inkscape:current-layer="layer1" /><defs
     id="defs1" /><g
     inkscape:label="Warstwa 1"
     inkscape:groupmode="layer"
     id="layer1"
     transform="translate(79.906526,-117.18818)"><g
       id="g114"
       transform="translate(-168.38697,16.757612)"><path
         style="fill:#f2f516;fill-opacity:0.521158;stroke:#32bfe3;stroke-width:0.264583;stroke-opacity:1"
         d="m 122.69884,100.52896 -34.019305,30.57915 c 0,0 31.725865,27.90347 31.725865,31.72586 0,3.8224 -17.20077,49.30889 -17.20077,49.30889 l 38.22394,-53.13128 -35.9305,-29.43243 z"
         id="path89" /><path
         style="fill:#16a3f5;fill-opacity:1;stroke:none;stroke-width:0.264583;stroke-opacity:1"
         d="m 111.99614,198 1.9112,-13.95174 -0.76448,10.32046 z"
         id="path90" /><path
         style="fill:#16a3f5;fill-opacity:1;stroke:none;stroke-width:0.264583;stroke-opacity:1"
         d="m 119.44981,169.33205 2.67567,6.68918 -6.11583,17.77413 4.20464,-16.62741 z"
         id="path91" /><path
         style="fill:#16a3f5;fill-opacity:1;stroke:none;stroke-width:0.264583;stroke-opacity:1"
         d="m 140.09073,158.82046 -19.30309,4.96911 0.76448,4.96912 0.57336,-3.8224 17.39189,-5.16023 z"
         id="path92" /><path
         style="fill:#16a3f5;fill-opacity:1;stroke:none;stroke-width:0.264583;stroke-opacity:1"
         d="m 125.56564,178.88803 3.24903,-13.18726 -3.63127,10.12934 z"
         id="path93" /><path
         style="fill:#16a3f5;fill-opacity:1;stroke:none;stroke-width:0.264583;stroke-opacity:1"
         d="m 105.49807,206.7915 7.07143,-8.40926 -4.39576,3.82239 z"
         id="path94" /><path
         style="fill:#16a3f5;fill-opacity:1;stroke:none;stroke-width:0.264583;stroke-opacity:1"
         d="m 90.208493,131.10811 3.440155,-0.57336 1.528958,0.38224 2.484554,-0.19112 2.67568,2.10231 3.24903,-1.14672 2.29344,2.48456 11.84942,14.14286 -2.48456,-1.52896 -3.24903,-6.88031 -4.77799,-2.67567 -3.8224,-4.01352 -4.777992,0.19112 -1.720074,-1.14672 h -3.249036 l -0.955598,-0.76447 z"
         id="path95" /><path
         style="fill:#16a3f5;fill-opacity:1;stroke:none;stroke-width:0.264583;stroke-opacity:1"
         d="m 102.05791,141.04633 35.16603,16.43629 -9.17375,-2.86679 z"
         id="path96" /><path
         style="fill:#16a3f5;fill-opacity:1;stroke:none;stroke-width:0.264583;stroke-opacity:1"
         d="m 114.86293,152.70463 7.83591,8.60039 -8.40927,-12.42278 z"
         id="path97" /><path
         style="fill:#16a3f5;fill-opacity:1;stroke:none;stroke-width:0.264583;stroke-opacity:1"
         d="m 116.76271,106.22163 -8.3788,9.73023 7.29767,-5.94625 z"
         id="path98" /><path
         style="fill:#16a3f5;fill-opacity:1;stroke:none;stroke-width:0.264583;stroke-opacity:1"
         d="m 100.0051,127.03351 10.00051,-7.29767 -7.56795,2.70284 -8.919378,5.67596 z"
         id="path99" /><path
         style="fill:#16a3f5;fill-opacity:1;stroke:none;stroke-width:0.264583;stroke-opacity:1"
         d="m 118.11413,142.16941 10.81137,8.91938 -9.73023,-5.1354 z"
         id="path100" /></g></g></svg>
