<?xml version="1.0" encoding="UTF-8" standalone="no"?>
<!-- Created with Inkscape (http://www.inkscape.org/) -->

<svg
   width="210mm"
   height="297mm"
   viewBox="0 0 210 297"
   version="1.1"
   id="svg1"
   xml:space="preserve"
   inkscape:export-filename="flet.svg"
   inkscape:export-xdpi="96"
   inkscape:export-ydpi="96"
   inkscape:version="1.3 (0e150ed6c4, 2023-07-21)"
   sodipodi:docname="flet.svg"
   xmlns:inkscape="http://www.inkscape.org/namespaces/inkscape"
   xmlns:sodipodi="http://sodipodi.sourceforge.net/DTD/sodipodi-0.dtd"
   xmlns="http://www.w3.org/2000/svg"
   xmlns:svg="http://www.w3.org/2000/svg"><sodipodi:namedview
     id="namedview1"
     pagecolor="#ffffff"
     bordercolor="#000000"
     borderopacity="0.25"
     inkscape:showpageshadow="2"
     inkscape:pageopacity="0.0"
     inkscape:pagecheckerboard="0"
     inkscape:deskcolor="#d1d1d1"
     inkscape:document-units="mm"
     inkscape:zoom="0.4894542"
     inkscape:cx="1109.399"
     inkscape:cy="544.48404"
     inkscape:window-width="1920"
     inkscape:window-height="991"
     inkscape:window-x="-9"
     inkscape:window-y="-9"
     inkscape:window-maximized="1"
     inkscape:current-layer="layer1" /><defs
     id="defs1" /><g
     inkscape:label="Warstwa 1"
     inkscape:groupmode="layer"
     id="layer1"><path
       style="fill:#643d15;fill-opacity:1;stroke-width:0.264999;stroke-dasharray:none"
       d="m 146.39768,43.00193 c 0,0 -3.87017,-1.528959 -4.06129,-1.528959 -0.19112,0 -7.74035,0.04778 -7.74035,0.04778 l -4.58687,1.576737 -3.87018,2.054537 -3.15347,2.484557 -0.14334,1.242277 2.67568,12.32722 -5.16024,0.09556 c 0,0 -3.24903,1.003379 -3.58349,1.003379 -0.33446,0 -4.01351,1.672296 -4.01351,1.672296 l -3.53572,3.105695 -2.72345,2.723457 0.28668,2.245657 1.14671,6.689187 -3.48793,-0.334459 c 0,0 -3.72683,0.7167 -3.91795,0.860038 -0.19112,0.143341 -5.685814,3.583496 -5.685814,3.583496 l -3.440154,3.201254 2.102315,9.794883 c 0,0 -3.057914,-0.286679 -3.249033,-0.430019 -0.191122,-0.143338 -4.204634,0.14334 -4.443534,0.09556 -0.2389,-0.04778 -3.010135,1.00338 -3.296814,1.00338 -0.286679,0 -3.679055,2.102315 -3.679055,2.102315 l -3.105695,2.484552 -1.576737,2.24566 2.006756,8.64817 h -3.487933 l -4.539094,1.05116 -3.583493,1.38561 -4.539093,2.34122 -3.631274,3.3446 -1.385618,1.81563 2.054537,7.97925 -2.484556,-0.43002 -2.627895,0.28668 -4.777994,0.9556 -3.631274,2.24565 -2.819013,2.72346 -1.767859,3.34459 -0.334459,2.48456 2.006756,8.02703 2.532337,12.375 1.481177,6.54585 2.580117,12.42278 1.720077,8.69594 v 0.66892 l -1.098939,0.38224 -2.150097,0.52558 -1.194498,1.00338 -0.286679,6.40251 0.2389,3.77461 0.33446,-0.28668 0.764479,4.06129 1.098936,4.92134 1.624518,6.02027 0.716698,1.52895 0.477801,0.33446 1.337836,-0.14333 2.388997,-0.43002 1.815637,-0.0956 2.580116,12.99614 1.051158,5.97249 0.81226,2.389 3.679053,2.24566 4.395753,1.00338 4.395753,0.0956 3.679055,-0.66892 4.443531,-1.48118 2.819017,-3.39238 0.907817,-1.33783 0.4778,-0.0478 1.528959,0.90782 4.539091,0.2389 4.969113,-0.57336 4.586872,-2.86679 0.907822,-0.57336 1.95897,-0.19112 4.49132,1.72008 1.19449,-0.43002 3.67906,-0.0478 4.25241,-1.52896 3.24903,-1.91119 0.33446,-1.00338 1.81564,-0.14334 2.00676,1.09893 5.30357,1.05116 4.96911,-0.90781 3.72684,-1.57674 2.38899,-2.91458 1.4334,-0.62114 1.86342,0.66892 3.48793,0.7167 5.20801,-0.28668 3.8224,-2.43677 2.15009,-3.29682 1.00338,-0.7167 2.10232,1.33784 5.82915,1.33784 5.06467,-0.57336 3.58349,-2.24566 4.0613,-4.49131 -1.86342,-8.69595 -1.81564,-8.3137 0.0478,-1.24228 1.76786,-0.14334 0.38224,-1.62452 0.66892,-1.91119 0.52558,-1.6723 0.4778,-1.4334 0.33446,-2.00676 -0.33446,-2.96235 -0.0478,-3.20126 -0.90782,-2.77123 -2.24566,-4.77799 -1.14672,-1.48118 -3.20125,-3.63128 -1.57674,-1.48117 -1.48117,-5.78138 -2.48456,-13.95173 -1.52896,-8.45705 -3.48793,-17.15299 -1.33784,-7.88369 -2.29344,-11.22828 -2.72345,-14.381755 -0.9556,-4.682432 -2.389,-13.999519 -3.29681,-17.24855 -1.24228,-7.501448 z"
       id="path100" /><path
       style="fill:#e2ba34;stroke-width:0.264583;fill-opacity:0.61342591"
       d="m 127.66795,52.366796 4.58687,0.191119 8.79151,-1.337839 2.8668,-1.528956 10.89382,54.85135 -1.9112,1.52896 -2.67568,1.72008 -1.72007,0.76447 -2.8668,0.76448 h -2.67567 l -4.20464,-1.14672 z"
       id="path1" /><path
       style="fill:#997b16;fill-opacity:0.61342591;stroke-width:0.264583"
       d="m 132.06371,52.557915 5.35135,20.258688 1.72007,11.27606 3.44016,19.685327 1.14672,4.96911 -0.19112,0.38224 -4.778,-1.14672 -11.27606,-56.571423 1.14672,0.573358 1.9112,0.382241 c 0,0 1.14671,0.382238 1.52896,0.191119 z"
       id="path2" /><path
       style="fill:#e0b526;fill-opacity:0.61342603;stroke-width:0.264583"
       d="m 132.82818,52.940153 7.83591,-1.337836 3.24904,17.39189 4.01351,17.583012 4.20463,16.818531 0.9556,2.67568 -4.20463,2.29343 -4.20464,1.33784 -0.95559,-0.76448 -1.52896,-7.83591 -2.10232,-12.613894 -1.52896,-8.791506 -1.52895,-7.835908 -3.63128,-15.289575 z"
       id="path3" /><path
       style="fill:#edd480;fill-opacity:0.61342603;stroke-width:0.264583"
       d="m 144.10424,49.499998 -3.63127,1.911199 4.20463,21.787644 1.72008,6.306949 4.58687,19.111968 1.72008,7.835912 2.10232,-2.67568 z"
       id="path4" /><path
       style="fill:#edd480;fill-opacity:0.613426;stroke-width:0.264583"
       d="m 135.04067,45.137437 -2.43032,0.574355 -1.64013,0.371639 -2.23571,1.047351 -1.81716,0.844637 -0.27586,0.608139 1.23665,0.641924 3.21493,-0.168925 2.32339,0.03378 3.7499,-3.648834 z"
       id="path5" /><path
       style="fill:#a28217;fill-opacity:0.61342603;stroke-width:0.264583"
       d="m 134.9731,44.833367 2.06092,-0.202713 3.17583,0.03379 0.60814,0.101354 0.87843,0.168928 -0.50679,0.540568 -0.27028,0.506783 0.30407,0.675711 -0.20271,0.202713 -1.62171,0.912207 -2.77041,0.945996 -1.41899,0.50678 -1.58792,-0.101353 -0.2365,0.03378 3.75019,-3.615049 z"
       id="path9" /><path
       style="fill:#dfe415;fill-opacity:0.61342603;stroke-width:0.264583"
       d="m 143.08162,45.441507 -1.11492,1.04735 -0.67571,0.371642 -0.57435,-0.810853 0.94599,-1.081137 0.946,0.101356 0.47299,0.101357 z"
       id="path10" /><path
       style="fill:#e1b72d;fill-opacity:0.61342603;stroke-width:0.264583"
       d="m 127.06729,68.517007 -2.80419,1.486564 -2.5677,1.047351 -2.8042,0.439211 -4.02048,0.405426 -4.1894,-0.03379 1.89199,10.507292 6.08139,29.866389 2.43256,1.08114 2.5677,0.60814 h 2.97312 l 3.10827,-0.74328 2.22984,-2.02713 1.14871,-0.473 1.1487,-1.28385 0.67572,-0.27028 -2.16228,-11.554652 -5.40568,-26.08241 z"
       id="path11" /><path
       style="fill:#a58418;fill-opacity:0.61342603;stroke-width:0.264583"
       d="m 114.12744,71.963131 h -3.31098 l 7.97338,40.745319 2.36499,0.60814 2.29741,0.473 z"
       id="path12" /><path
       style="fill:#e1b72e;fill-opacity:0.61342603;stroke-width:0.264583"
       d="m 124.73609,70.138712 c 0,0 -3.51369,1.283849 -3.85155,1.283849 -0.33785,0 -3.64883,0.405426 -3.64883,0.405426 l -3.24341,0.337857 9.39237,41.488596 2.63527,0.473 1.6217,-0.0676 2.09471,-0.94599 3.17583,-2.5677 1.35142,-0.87842 0.27029,-0.473 -5.20297,-19.663166 z"
       id="path13" /><path
       style="fill:#eacc6a;fill-opacity:0.61342603;stroke-width:0.264583"
       d="m 126.96594,68.787292 -2.50013,1.216279 7.16253,28.312255 2.97312,10.946504 -2.02713,-14.05477 z"
       id="path14" /><path
       style="fill:#d2a81e;fill-opacity:0.61342603;stroke-width:0.264583"
       d="m 109.05962,84.734052 -3.78398,1.891988 -3.71641,0.540568 h -5.00025 l -0.675712,-0.135142 5.675962,29.528534 4.32455,0.74328 1.28385,0.40543 3.24341,-0.81086 3.17584,-2.0947 1.35142,-0.81085 z"
       id="path15" /><path
       style="fill:#9f7f17;fill-opacity:0.61342603;stroke-width:0.264583"
       d="m 99.194248,87.23418 h -3.108266 l 1.756846,9.527513 3.716402,19.730737 3.98669,0.67571 -1.95956,-11.21679 -1.95955,-10.068082 -1.62171,-7.703095 -0.13514,-1.148707 z"
       id="path16" /><path
       style="fill:#dfb324;fill-opacity:0.613426;stroke-width:0.271826"
       d="m 107.54797,86.288186 -2.18285,0.615969 -3.16865,0.342205 h -2.394082 l 5.210662,25.32317 1.05622,5.61218 2.88698,-0.27377 1.68994,-0.47908 1.33788,-0.88974 1.33787,-0.75285 0.70414,-0.82129 -3.73195,-15.673002 z"
       id="path17" /><path
       style="fill:#f8eece;fill-opacity:0.61342603;stroke-width:0.264583"
       d="m 109.19476,84.734052 -2.02713,1.283849 2.70284,13.784487 3.64883,15.406192 1.419,-1.28385 -2.50013,-12.63578 -2.63527,-14.66291 z"
       id="path18" /><path
       style="fill:#9f7e17;fill-opacity:0.61342603;stroke-width:0.264583"
       d="m 94.747587,102.82239 2.962354,14.62066 -2.388997,1.62452 c 0,0 -3.105695,1.62451 -3.344592,1.52895 -0.238901,-0.0956 -5.016895,0.33446 -5.016895,0.33446 l -5.20801,-1.4334 -2.675676,-13.47393 h 4.443534 l 4.013512,-0.0478 1.911197,-0.43002 1.958978,-0.90782 2.054537,-0.86004 z"
       id="path19" /><path
       style="fill:#846813;fill-opacity:0.61342603;stroke-width:0.264583"
       d="m 83.519305,106.35811 3.296814,14.47731 -5.208013,-1.05115 -1.242277,-6.49808 -1.194498,-6.73696 v -0.57336 l 3.535714,0.0956 1.290058,0.0478 z"
       id="path20" /><path
       style="fill:#e1b52f;fill-opacity:0.61342603;stroke-width:0.264583"
       d="m 91.78523,104.92471 3.583495,13.85618 -2.580116,1.62451 -2.245656,0.2389 -3.392374,0.52558 -0.382241,-0.4778 -2.293434,-10.79826 -0.812261,-3.34459 0.57336,-0.57336 1.481177,0.0956 2.102316,-0.2389 0.860039,-0.28668 1.911196,-0.57336 0.90782,-0.57336 0.286679,-0.14334 z"
       id="path21" /><path
       style="fill:#eed58a;fill-opacity:1;stroke-width:0.264583"
       d="m 94.795365,102.67905 -2.006756,1.52896 -1.003379,0.19112 0.33446,1.62452 2.436775,9.2693 0.81226,3.53572 1.863416,-0.86004 0.191121,-0.57336 -0.04778,-2.24566 -1.481177,-6.25917 z"
       id="path22" /><path
       style="fill:#eacb6e;fill-opacity:1;stroke-width:0.264583"
       d="m 69.137548,115.91409 1.290058,1.6723 1.003379,1.48118 v 1.48118 l -3.010135,0.43001 -2.771236,0.0956 -3.726836,-0.43002 -2.197875,-0.33446 2.914576,-1.72007 2.006756,-1.24228 2.341216,-0.9556 1.098939,-0.38224 z"
       id="path23" /><path
       style="fill:#c1971c;fill-opacity:1;stroke-width:0.264583"
       d="m 69.185326,115.86631 3.440155,-0.2389 2.054537,-0.14334 1.863418,-0.0478 0.382238,0.2389 v 1.4334 1.05116 l -2.580116,0.90782 -2.054537,1.24227 -0.668917,0.23891 -0.191119,0.0478 v -1.57673 z"
       id="path24" /><path
       style="fill:#edd181;fill-opacity:1;stroke-width:0.264583"
       d="m 51.315635,133.87934 0.860039,0.81226 0.621141,0.76448 0.382238,0.9556 v 0.9556 l -1.051158,0.0478 -8.648165,0.47779 1.051158,-1.43339 2.102315,-1.38562 1.481178,-0.90782 1.624517,-0.33446 1.194499,-0.19112 z"
       id="path25" /><path
       style="fill:#e1b22b;fill-opacity:1;stroke-width:0.264583"
       d="m 58.004826,134.30936 c 0,0 0.191119,1.05116 0,1.05116 -0.191119,0 -0.90782,0.52558 -0.90782,0.52558 0,0 -1.481177,0.4778 -1.720075,0.57336 -0.2389,0.0956 -1.911199,0.7167 -1.911199,0.7167 l -0.382238,0.14334 0.191119,-1.05116 -0.430019,-0.9556 -0.621139,-0.52558 -0.90782,-0.86004 -0.430019,-0.28668 2.054537,-0.38224 1.815637,0.33446 1.624518,0.14334 0.621138,0.19112 z"
       id="path26" /><path
       style="fill:#ebcb6f;fill-opacity:1;stroke-width:0.264583"
       d="m 86.05164,98.80888 -2.150096,0.33446 c 0,0 -0.955599,0.86004 -1.242277,1.00338 -0.286682,0.14334 -1.290058,0.28668 -1.624518,0.52558 -0.33446,0.2389 -1.958978,0.86003 -1.958978,0.86003 l -0.907817,0.7167 0.286679,0.62114 1.051157,0.0956 1.624518,-0.0478 h 2.341216 l 1.958978,-0.0956 1.767856,-0.52558 1.863418,-0.38223 0.143338,-0.71671 -0.382239,-0.66891 -0.525578,-0.43002 -0.716698,-0.286683 -0.76448,-0.143338 -0.57336,-0.33446 z"
       id="path27" /><path
       style="fill:#947315;fill-opacity:1;stroke-width:0.264583"
       d="m 89.635133,101.96235 c -0.382238,-0.19112 1.337839,-0.90781 1.337839,-0.90781 l 0.955598,-0.52558 1.290059,-0.28668 0.812257,-0.382242 -0.04778,-1.051158 -0.621139,0.286679 -0.764479,-0.477801 -1.24228,-0.238897 h -1.672296 -1.433399 l -1.528955,0.238897 -0.716701,0.143341 0.382241,0.57336 1.337837,0.573357 0.621138,0.143344 0.382241,0.4778 0.33446,0.4778 -0.04778,0.62113 0.04778,0.2389 0.668919,0.43002 z"
       id="path28" /><path
       style="fill:#f0d997;fill-opacity:1;stroke-width:0.264583"
       d="m 100.24228,82.229247 c -1.146721,0.43002 -1.720081,0.382238 -2.293439,0.764477 -0.57336,0.382241 -0.955598,0.621141 -0.955598,0.621141 l 1.003377,0.621138 1.767858,0.04778 1.815642,0.04778 1.24227,-0.09556 0.19112,-1.098939 -0.9556,-0.907817 z"
       id="path29" /><path
       style="fill:#cc9f1e;fill-opacity:1;stroke-width:0.264583"
       d="m 100.00338,82.181466 1.62451,-0.382238 0.76448,-0.430019 1.62452,-0.286682 1.00338,-0.04778 h 1.00338 l 0.90782,0.09556 -0.19112,0.525579 -0.0956,0.860039 -0.14334,0.382238 c 0,0 -0.76448,0.143341 -0.9556,0.33446 -0.19112,0.191119 -1.14672,0.57336 -1.14672,0.57336 l -0.4778,0.191119 -0.81226,0.382241 h -0.33446 l 0.0956,-0.66892 0.19112,-0.621138 -0.66892,-0.57336 -0.47779,-0.33446 -0.81227,0.04778 z"
       id="path30" /><path
       style="fill:#6d5510;fill-opacity:1;stroke-width:0.264583"
       d="m 107.12259,80.986968 -0.2389,0.955598 -0.2389,0.716701 0.7167,-0.382241 0.47779,-0.33446 0.57336,-0.09556 c 0,0 -0.14334,-0.334459 -0.38223,-0.382238 -0.2389,-0.04778 -0.4778,-0.2389 -0.4778,-0.2389 z"
       id="path31" /><path
       style="fill:#6f5710;fill-opacity:0.529661;stroke-width:0.264583"
       d="m 111.80502,67.608589 0.9556,1.098939 -0.0478,0.57336 c 0,0 -0.0478,-0.04778 -0.33446,-0.04778 -0.28668,0 -0.33446,0 -0.33446,0 l -0.7167,0.143341 -0.57336,0.04778 h -0.7167 l -0.0478,-0.430019 0.38224,-0.238898 0.52558,-0.2389 0.57336,-0.430019 z"
       id="path32" /><path
       style="fill:#efd891;fill-opacity:0.529661;stroke-width:0.264583"
       d="m 112.61728,69.280888 -0.0478,-0.907819 -0.52558,-0.477798 -0.14334,-0.286682 2.43677,-1.481177 2.1501,-0.907817 2.00676,-0.66892 1.09894,0.09556 0.14334,0.286679 0.14333,1.194498 -0.57335,1.481177 v 0.76448 l -2.05454,0.621138 -1.48118,0.04778 -1.95898,0.191119 -0.47779,0.33446 z"
       id="path33" /><path
       style="fill:#db9720;fill-opacity:0.529661;stroke-width:0.264583"
       d="m 118.82867,64.598454 1.76785,-0.238898 2.19788,-0.14334 2.389,-0.04778 0.76447,0.191121 -0.0478,1.290058 -1.52896,0.860039 -1.72008,1.146717 -1.81564,0.43002 -1.52895,0.286679 -0.2389,-0.573361 c 0,0 -0.14334,0.812261 0.28668,-0.430019 0.43002,-1.242277 0.76448,-1.624515 0.76448,-1.624515 l -0.38225,-0.716701 -0.38223,-0.430019 z"
       id="path34" /><path
       style="fill:#db7820;fill-opacity:1;stroke-width:0.264583"
       d="m 42.763029,141.14189 2.627898,0.0956 2.723454,0.0478 3.440154,-0.19112 2.102319,-0.38224 1.958975,-0.33446 1.720077,-0.57336 1.863418,-0.95559 4.443532,21.8832 -2.245657,1.38562 -2.245656,1.38561 c 0,0 -2.150097,1.1945 -2.580116,1.1945 -0.430019,0 -3.917953,0.2389 -3.917953,0.2389 l -2.819016,0.14334 -1.385618,-0.62114 -0.764479,-1.38562 -1.720077,-8.3137 -2.006756,-8.50483 -0.812258,-4.34797 z"
       id="path35" /><path
       style="fill:#a24b18;fill-opacity:1;stroke-width:0.264583"
       d="m 48.209943,141.28523 0.812257,3.82239 1.528959,6.78475 2.436775,8.88707 0.764479,4.06129 -2.484556,0.4778 -1.958978,-0.33446 -1.146717,-0.38224 -0.57336,-1.91119 c 0,0 -0.525579,-3.1057 -0.621139,-3.29682 -0.09556,-0.19112 -1.051158,-5.30357 -1.051158,-5.30357 l -1.433398,-5.30357 -0.860039,-4.39575 -0.573357,-2.19788 -0.33446,-1.09894 2.532335,0.38224 z"
       id="path36" /><path
       style="fill:#ea9b38;fill-opacity:1;stroke-width:0.264583"
       d="m 56.858108,140.28185 2.054535,-1.1945 0.955601,4.20464 2.197875,10.51158 1.672296,7.07143 -1.146717,0.76448 -1.051158,0.43002 z"
       id="path37" /><path
       style="fill:#ea9b38;fill-opacity:0.59745765;stroke-width:0.264583"
       d="m 59.724903,123.31998 5.685811,1.1945 6.163609,-0.43002 3.105695,-1.57674 2.675676,-1.86342 0.382241,-0.14334 2.293434,12.27944 1.767859,10.12935 1.385617,5.87693 0.812258,6.35473 -1.337836,1.29005 -3.965734,2.19788 -3.583496,0.81226 -4.252412,0.14334 -3.153476,-0.9556 -0.525579,-0.4778 -2.627895,-12.8528 -2.388996,-10.98938 -1.672297,-7.93147 z"
       id="path38" /><path
       style="fill:#e79e43;fill-opacity:1;stroke-width:0.264583"
       d="m 75.071398,122.64139 2.635268,-2.16227 6.689529,35.13693 -1.486561,0.74328 z"
       id="path39" /><path
       style="fill:#a36415;fill-opacity:1;stroke-width:0.264583"
       d="m 64.59789,124.9388 -4.865113,-1.35142 7.635523,35.00179 3.31098,0.81085 1.283851,0.27029 z"
       id="path40" /><path
       style="fill:#c0710e;fill-opacity:1;stroke-width:0.264583"
       d="m 82.233925,122.30354 5.743535,1.28384 6.554388,31.62324 -2.162273,0.13514 -2.297414,-0.67571 -2.297414,-0.87842 z"
       id="path41" /><path
       style="fill:#f58900;fill-opacity:1;stroke-width:0.264583"
       d="m 94.59942,155.9539 4.932683,-1.6217 3.716407,-2.02713 1.08114,-0.60814 -8.176096,-30.67725 -1.891988,1.48657 -3.108267,0.74328 c 0,0 -2.297417,0.81085 -2.635271,0.60814 -0.337855,-0.20271 -0.945994,-0.60814 -0.945994,-0.60814 z"
       id="path42" /><path
       style="fill:#f6be3d;fill-opacity:1;stroke-width:0.264583"
       d="m 96.153554,121.08726 1.891987,-1.55414 5.946249,31.62324 z"
       id="path43" /><path
       style="fill:#a05e08;fill-opacity:1;stroke-width:0.264583"
       d="m 102.03223,118.51956 4.1894,1.08114 6.01382,30.27181 0.473,1.41899 -3.91912,-0.40543 -0.60814,-0.40542 -3.64883,-19.79831 z"
       id="path44" /><path
       style="fill:#f39316;fill-opacity:1;stroke-width:0.264583"
       d="m 106.2892,119.26284 1.95956,0.33786 1.95956,-0.20272 2.50013,-1.1487 1.41899,-1.419 5.6084,22.36601 2.02713,8.3788 -3.31098,2.16228 -4.59483,1.55413 -1.28385,-0.33785 -0.27029,0.0676 z"
       id="path45" /><path
       style="fill:#f3b516;fill-opacity:1;stroke-width:0.264583"
       d="m 113.9923,117.16814 1.01357,-1.62171 5.40568,26.01484 -6.48682,-25.06884 h 0.27028 z"
       id="path46" /><path
       style="fill:#c24203;fill-opacity:1;stroke-width:0.264583"
       d="m 119.53312,114.39773 3.98669,1.1487 7.36525,32.70437 -1.82442,0.473 -1.08114,-0.473 c 0,0 -1.08114,-0.0676 -1.28385,-0.33785 -0.20271,-0.27028 -0.47299,-0.87842 -0.47299,-0.87842 l -0.67572,-1.01357 z"
       id="path47" /><path
       style="fill:#f0901c;fill-opacity:1;stroke-width:0.264583"
       d="m 123.65496,115.95186 5.00025,-0.27028 2.83798,-1.01357 c 0,0 3.71641,-3.04069 3.24341,-3.04069 -0.473,0 7.29767,32.02866 7.29767,32.02866 l -4.52726,2.90555 -2.56769,1.01356 -2.97313,0.87843 -1.35142,0.20271 z"
       id="path48" /><path
       style="fill:#f2c238;fill-opacity:1;stroke-width:0.264583"
       d="m 135.61502,110.68132 c 0.27029,0.0676 -1.21627,1.14871 -1.21627,1.14871 l 7.56795,31.6908 z"
       id="path49" /><path
       style="fill:#cf5e00;fill-opacity:1;stroke-width:0.264583"
       d="m 139.66929,111.15432 5.20296,0.74328 7.09496,32.56923 h -3.58126 l -2.36499,-0.67571 -0.33785,-0.946 z"
       id="path50" /><path
       style="fill:#f3a951;fill-opacity:1;stroke-width:0.264583"
       d="m 153.25106,108.72176 -4.25697,2.36499 -3.98669,0.87842 6.7571,32.6368 4.86511,-0.87842 2.90555,-1.82442 0.20272,-0.33786 z"
       id="path51" /><path
       style="fill:#bfbfbf;fill-opacity:1;stroke-width:0.265;stroke-dasharray:none"
       d="m 66.605213,191.59749 -15.671816,2.38899 3.057914,14.0473 7.26255,1.33784 13.187257,-2.58012 4.491312,-0.19112 11.753864,-1.72007 24.463316,-3.3446 11.1805,-2.29343 6.59363,-0.57336 12.23166,-3.72684 9.74711,-0.19112 6.49807,-2.00675 12.32722,-1.62452 1.43339,0.76448 0.38225,-4.58687 -0.19113,-3.44016 c 0,0 -1.52895,-3.63127 -2.48455,-4.10907 -0.9556,-0.4778 -4.20463,-3.91796 -4.20463,-3.91796 0,0 -7.16699,0.86004 -8.12259,1.14672 -0.9556,0.28668 -24.2722,4.10908 -24.2722,4.10908 0,0 -41.950773,6.97586 -42.524133,7.07142 -0.57336,0.0956 -12.900577,2.58012 -13.473937,2.77124 -0.57336,0.19112 -11.562742,1.62452 -11.562742,1.62452 0,0 -0.764479,-0.28668 -1.242277,-0.57336 -0.4778,-0.28668 -0.860038,-0.38224 -0.860038,-0.38224 z"
       id="path98" /><path
       style="fill:#ecc015;fill-opacity:1;stroke-width:0.264583"
       d="m 153.18349,108.92447 c 0,0 1.6217,-1.55413 2.0947,-1.55413 0.473,0 6.14896,33.17737 6.14896,33.17737 l -1.89199,1.21628 z"
       id="path52" /><path
       style="fill:#ecc015;fill-opacity:0.42372882;stroke-width:0.264583"
       d="m 161.42715,142.77755 -2.90555,2.50013 -7.02739,1.75685 -4.32454,-0.946 -0.81085,-0.13514 5.27054,25.27156 5.00025,-0.67571 7.97338,-1.21628 1.95956,0.13514 -4.86511,-26.28512 z"
       id="path53" /><path
       style="fill:#90750c;fill-opacity:0.42372882;stroke-width:0.264583"
       d="m 150.48065,146.6291 -4.12183,-1.01356 5.20296,25.81212 3.91912,-0.94599 z"
       id="path54" /><path
       style="fill:#fbf2cf;fill-opacity:0.42372903;stroke-width:0.264583"
       d="m 159.67031,144.5344 2.02713,-1.75685 4.72997,26.55541 -1.08114,0.20271 z"
       id="path55" /><path
       style="fill:#fbf2cf;fill-opacity:0.62288135;stroke-width:0.264583"
       d="m 126.69565,149.53465 2.5677,0.74328 h 3.17584 l 2.97312,-0.6757 3.64884,-1.55414 2.16227,-1.01356 1.14871,-1.48657 5.33811,26.89327 -16.41976,2.43256 z"
       id="path56" /><path
       style="fill:#9a7d0d;fill-opacity:0.622881;stroke-width:0.264583"
       d="m 126.49294,149.46708 c 0.13514,0.27029 1.82442,0.60814 1.82442,0.60814 l 1.28384,0.33786 1.01357,-0.0676 4.59483,24.19042 -1.6217,0.20271 -2.29742,0.13515 -3.44612,-19.39289 z"
       id="path57" /><path
       style="fill:#f9ecb9;fill-opacity:0.622881;stroke-width:0.264583"
       d="m 108.58662,152.77806 3.64883,0.473 2.97313,-0.0676 4.6624,-1.35142 2.22984,-1.62171 0.33786,-0.40542 5.40568,25.81213 -14.39263,2.36498 -3.7164,-19.93345 z"
       id="path58" /><path
       style="fill:#80660d;fill-opacity:0.622881;stroke-width:0.264583"
       d="m 108.31634,152.91321 3.04069,0.27028 1.75685,-0.0676 4.52726,23.78499 -4.12184,1.14871 z"
       id="path59" /><path
       style="fill:#f5e19b;fill-opacity:0.74576271;stroke-width:0.264583"
       d="m 104.39722,153.92677 -2.43256,1.68928 -3.44612,1.68927 -2.837985,0.27029 -3.986688,-0.473 -3.378552,-1.08114 1.689277,10.00051 2.973123,15.40619 0.405426,0.473 5.338112,-1.35142 10.608647,-1.89199 z"
       id="path60" /><path
       style="fill:#723b07;fill-opacity:0.745763;stroke-width:0.264583"
       d="m 88.382887,156.08904 2.567699,0.81085 2.837981,0.473 4.729973,23.17686 -5.135399,1.35142 -0.472995,-0.54057 z"
       id="path61" /><path
       style="fill:#725307;fill-opacity:0.27542374;stroke-width:0.264583"
       d="m 84.598908,157.10261 -4.6624,3.37855 -6.081389,1.14871 -3.040695,0.0676 -3.108267,-0.81085 5.405681,25.06884 4.729969,-1.08114 5.135399,-1.41899 5.202967,-0.67571 1.081136,-0.27028 z"
       id="path62" /><path
       style="fill:#c38e0c;fill-opacity:0.5;stroke-width:0.264583"
       d="m 72.098272,162.17043 2.973126,-0.13514 3.446121,-0.94599 3.31098,-1.35142 1.216276,-1.01357 5.946251,23.10929 c 0,0 -4.189404,1.35142 -4.459687,1.35142 -0.270285,0 -6.216533,1.21628 -6.216533,1.21628 l -0.810853,0.13514 -2.905554,-13.64935 z"
       id="path63" /><path
       style="fill:#f7d37b;fill-opacity:0.87711865;stroke-width:0.264583"
       d="m 83.044775,158.92703 1.689277,-1.89199 4.459687,25.33913 z"
       id="path64" /><path
       style="fill:#f7d37b;fill-opacity:0.60169494;stroke-width:0.264583"
       d="m 64.192464,163.65699 -3.919119,2.77042 -3.986689,1.1487 -6.01382,-0.13514 -2.162273,-0.40542 4.729969,22.56872 16.284615,-3.0407 z"
       id="path65" /><path
       style="fill:#ab7c0a;fill-opacity:0.60169494;stroke-width:0.264583"
       d="m 48.313276,167.17069 3.108267,0.473 3.108266,-0.0676 3.783976,20.67674 -5.27054,1.48656 z"
       id="path66" /><path
       style="fill:#fefbf3;fill-opacity:0.601695;stroke-width:0.264583"
       d="m 61.962619,164.87327 2.229845,-1.75684 3.175836,16.01433 -5.743535,-13.71692 z"
       id="path67" /><path
       style="fill:#fefbf3;fill-opacity:0.61864406;stroke-width:0.264583"
       d="m 58.854352,217.78138 16.352187,-3.0407 4.797541,20.81187 -2.567699,2.16228 -4.459687,0.94599 -3.040695,0.54057 -4.459687,-0.74328 -2.297414,-0.0676 -2.837981,-14.79805 z"
       id="path68" /><path
       style="fill:#814700;fill-opacity:0.61864406;stroke-width:0.264583"
       d="m 63.178898,217.30838 4.121833,22.23087 -3.446124,-0.33786 -1.013563,-1.14871 -2.432558,-13.31149 -1.41899,-7.09495 c 0,0 3.581263,-0.40543 4.189402,-0.33786 z"
       id="path69" /><path
       style="fill:#814700;fill-opacity:0.618644;stroke-width:0.264583"
       d="m 79.531085,214.06497 0.202713,2.43256 2.364983,9.52751 1.418992,6.41925 1.891988,0.94599 2.229845,0.40543 h 0.540567 l -4.392115,-20.40645 z"
       id="path70" /><path
       style="fill:#e3c9a0;fill-opacity:1;stroke-width:0.264583"
       d="m 84.058341,213.25412 10.608648,-1.75684 3.446124,18.78474 -3.851547,2.43255 -4.459687,0.81085 h -1.554134 z"
       id="path71" /><path
       style="fill:#d4aa1e;fill-opacity:1;stroke-width:0.264583"
       d="m 103.51879,210.01071 -5.00025,0.40543 3.7164,19.39288 4.39212,0.94599 z"
       id="path72" /><path
       style="fill:#efd98f;fill-opacity:1;stroke-width:0.264583"
       d="m 103.45122,210.07828 c -0.40542,0.27029 3.24341,21.01459 3.24341,21.01459 l 3.85155,-0.40543 4.52726,-1.89199 2.63527,-1.89199 0.67571,-0.47299 -1.21628,-6.08139 -1.35142,-7.02739 -1.21628,-0.40543 -2.63527,0.81086 -4.45969,0.54056 -3.04069,0.87843 z"
       id="path73" /><path
       style="fill:#d7961f;fill-opacity:1;stroke-width:0.264583"
       d="m 103.24851,210.01071 1.28385,5.47325 3.98669,-1.08113 3.91912,-1.08114 c 0,0 1.08113,-0.13514 1.35142,0 0.27028,0.13514 1.14871,-0.13514 1.14871,-0.13514 l 0.60813,-0.0676 -0.74328,-4.72997 c 0,0 -4.05426,0.60814 -4.32454,0.60814 -0.27029,0 -4.86511,0.74328 -4.86511,0.74328 z"
       id="path74" /><path
       style="fill:#d7961f;fill-opacity:1;stroke-width:0.264583"
       d="m 123.18196,207.30787 3.31098,20.40645 -3.91912,-0.67571 -3.37855,-19.32531 z"
       id="path75" /><path
       style="fill:#f4ddb3;fill-opacity:1;stroke-width:0.264583"
       d="m 126.89836,227.78189 c -0.0676,-0.33786 -2.43255,-13.78449 -2.43255,-13.78449 l -0.74328,-2.36498 2.22984,-0.74328 3.10827,-0.67572 4.72997,-1.28384 1.82441,7.56795 1.62171,6.35167 0.54057,2.22985 -1.89199,0.94599 -1.75685,1.21628 -2.36498,0.74328 -2.16228,0.33786 -2.43255,-0.0676 z"
       id="path76" /><path
       style="fill:#c4891c;fill-opacity:1;stroke-width:0.264583"
       d="m 123.24953,207.10516 3.91912,-0.946 4.59483,-0.67571 1.95956,-0.0676 -0.20272,2.90556 -0.33785,0.67571 -2.43256,0.67571 -3.58126,0.94599 -3.0407,0.81085 -0.60814,0.27029 z"
       id="path77" /><path
       style="fill:#9d6e16;fill-opacity:1;stroke-width:0.264583"
       d="m 141.76399,204.33475 3.44612,16.48732 0.13514,2.63527 -2.83798,-0.47299 -1.28385,-0.81086 -3.37855,-17.7036 2.16227,-0.27029 1.82442,-0.13514 z"
       id="path78" /><path
       style="fill:#c78b1c;fill-opacity:1;stroke-width:0.264583"
       d="m 142.77755,207.37544 4.72997,-0.60814 6.48682,-2.16227 -0.33785,-2.77041 -1.21628,-0.0676 -4.18941,1.55413 -5.27053,0.13514 -1.48657,0.54057 1.21628,3.85155 z"
       id="path79" /><path
       style="fill:#f0d197;fill-opacity:1;stroke-width:0.264583"
       d="m 142.23698,207.64572 10.40594,-2.0947 1.35142,-0.87842 2.77041,13.04121 -3.58126,3.85155 -1.95956,1.55413 -2.43256,0.60814 h -2.97312 c 0,0 -0.54057,0.0676 -0.54057,-0.20272 0,-0.27028 -0.60814,-5.40568 -0.60814,-5.40568 l -1.68927,-7.23009 z"
       id="path80" /><path
       style="fill:#cc8f1d;fill-opacity:1;stroke-width:0.264583"
       d="m 161.42715,200.75348 1.41899,5.94625 2.77041,11.21679 0.27029,1.35142 -3.17584,-0.74328 -1.68927,-0.81085 -3.0407,-16.5549 1.75685,-0.54057 z"
       id="path81" /><path
       style="fill:#cc8f1d;fill-opacity:1;stroke-width:0.264583"
       d="m 162.30557,203.0509 5.20297,-1.21628 3.10827,-0.74328 -0.33786,-2.50013 -6.21653,1.14871 -2.43255,0.81085 z"
       id="path82" /><path
       style="fill:#eabd6a;fill-opacity:1;stroke-width:0.264583"
       d="m 170.68438,201.29405 3.58127,14.73048 -1.55414,1.82442 -2.63527,1.14871 -2.70284,0.13514 c 0,0 -0.81085,0.27028 -1.08113,0 -0.27029,-0.27028 -1.14871,-5.33811 -1.14871,-5.33811 l -1.82442,-6.41925 -1.14871,-3.10826 0.0676,-1.14871 4.25697,-0.81085 2.83798,-0.81086 z"
       id="path83" /><path
       style="fill:#fcf6ea;fill-opacity:1;stroke-width:0.264583"
       d="m 170.75195,201.36162 1.68928,-0.67571 2.77041,14.79805 -1.01357,1.01357 z"
       id="path84" /><path
       style="fill:#e4d244;fill-opacity:1;stroke-width:0.264583"
       d="m 170.34653,198.59121 c 0.47299,2.70284 0.74328,2.36499 0.74328,2.36499 l 1.41899,-0.473 -0.473,-2.0947 z"
       id="path85" /><path
       style="fill:#818181;fill-opacity:1;stroke-width:0.264583"
       d="m 50.837837,193.79536 -3.440154,0.57336 2.293437,14.5251 2.102316,5.92471 12.231661,-2.8668 14.525095,-3.05791 18.347492,-2.86679 30.388026,-5.35136 29.81467,-4.39575 17.00966,-2.48456 2.29343,-1.52895 c 0,0 -3.82239,-0.9556 -4.58687,-0.57336 -0.76448,0.38224 -6.88031,0.76448 -7.83591,0.9556 -0.95559,0.19112 -5.54247,0.38224 -6.88031,1.14671 -1.33783,0.76448 -9.36486,1.14672 -10.51158,1.14672 -1.14672,0 -14.14286,3.8224 -14.14286,3.8224 l -12.80501,2.10231 -15.67182,2.48456 -18.72973,2.29343 c 0,0 -9.938223,1.72008 -10.702703,1.33784 -0.764476,-0.38224 -13.187256,2.29344 -13.187256,2.29344 l -7.644789,-1.33784 z"
       id="path86" /><path
       style="fill:#989898;fill-opacity:1;stroke-width:0.264583"
       d="m 59.629344,199.52895 c 0,0 -0.955599,3.24904 -1.720078,3.24904 -0.764479,0 0.764479,3.44015 0.764479,3.44015 l 2.102316,1.72008 3.440155,0.19112 2.293434,-1.52896 -1.720074,-0.38224 h -3.440155 l -1.528958,-3.24903 z"
       id="path87" /><path
       style="fill:#989898;fill-opacity:1;stroke-width:0.264583"
       d="m 75.683397,202.01351 c 0,0 -1.911196,0.76448 -1.911196,1.72008 0,0.9556 0.573357,2.29344 0.573357,2.29344 l 2.484557,-0.19113 2.293437,0.19113 6.498069,-1.9112 c 0,0 6.306949,-2.29344 7.262548,-2.29344 0.955598,0 6.11583,-0.76448 6.11583,-0.76448 l 11.276061,-1.14672 8.98263,-1.72007 c 0,0 11.84942,-1.72008 12.23166,-2.48456 0.38224,-0.76448 5.73359,-2.10231 5.73359,-2.10231 0,0 -1.9112,-0.76448 -3.05792,-0.76448 -1.14672,0 -9.55598,2.10231 -9.55598,2.10231 l -11.08495,2.10232 -14.142853,2.67568 c 0,0 -8.409265,0.95559 -9.173744,0.95559 -0.764479,0 -8.600387,1.52896 -9.364863,1.52896 -0.76448,0 -5.160233,-0.19112 -5.160233,-0.19112 z"
       id="path88" /><path
       style="fill:#989898;fill-opacity:1;stroke-width:0.264583"
       d="m 91.35521,198.38224 9.55599,-3.05792 9.93822,-1.14672 6.49807,-0.57335 c 0,0 -6.11583,1.91119 -6.88031,1.91119 -0.76448,0 -8.79151,1.72008 -8.79151,1.72008 L 93.648648,198 Z"
       id="path89" /><path
       style="fill:#633317;fill-opacity:1;stroke-width:0.264583"
       d="m 75.110037,201.44015 9.938224,-1.9112 4.969113,-1.33783 6.88031,-0.38224 8.027026,-0.9556 8.98263,-1.72008 7.07142,-1.9112 12.04054,-1.52895 6.30695,-1.14672 -5.54247,2.67567 -22.55212,4.01352 -10.12935,2.10231 -10.893817,1.9112 -11.658301,1.14672 z"
       id="path90" /><path
       style="fill:#633317;fill-opacity:1;stroke-width:0.264583"
       d="m 71.096525,197.23552 4.013512,-2.10232 9.173745,-1.33784 10.702702,-1.52895 15.098456,-3.05792 10.12935,-1.72008 4.96911,-0.57336 7.8359,-0.57335 8.02703,-1.14672 h 2.29344 l -14.14286,3.44015 -16.81853,2.67568 -13.378381,2.10232 -17.391893,3.44015 -12.040539,1.33784 1.146717,-2.10232 z"
       id="path91" /><path
       style="fill:#633317;fill-opacity:1;stroke-width:0.264583"
       d="m 159.39382,180.01086 -2.07843,2.00675 -0.35835,4.03741 1.81564,2.46066 2.1501,0.69281 2.36511,-0.43002 1.38561,-1.17061 1.12283,-1.86341 0.0956,-3.1057 -1.45729,-1.93509 c 0,0 -1.31394,-0.43001 -1.45729,-0.47779 -0.14334,-0.0478 -1.33783,-0.21501 -1.33783,-0.21501 l -1.4334,-0.16723 z"
       id="path92" /><path
       style="fill:#bfc814;fill-opacity:0.69491524;stroke-width:0.264583"
       d="m 160.80333,181.42037 -0.88393,0.54946 -0.52558,1.57674 -0.2389,2.43678 1.07505,0.78837 1.02727,0.21501 1.29006,-0.40613 1.05115,-0.88393 0.16723,-0.31057 -1.1945,-1.07505 -1.07504,-1.07505 -0.52558,-1.09894 z"
       id="path93" /><path
       style="fill:#f1ff06;fill-opacity:1;stroke-width:0.264583"
       d="m 160.58832,181.70704 0.64503,-0.2389 c 0,0 1.12283,0 1.21839,0 0.0956,0 0.90782,0.69281 0.90782,0.69281 0,0 0.62113,1.00338 0.62113,1.09894 0,0.0956 0.11945,1.60063 0.11945,1.60063 l -0.38224,0.59725 -1.67229,-1.48118 -0.7167,-0.83615 z"
       id="path94" /><path
       style="fill:#828282;fill-opacity:1;stroke-width:0.264583"
       d="m 158.60545,180.34532 -1.62451,0.4778 -1.05116,1.43339 -0.7167,2.46067 0.69281,3.20125 0.57336,0.90782 1.00337,1.07505 1.07505,0.78837 1.33784,0.78837 2.17399,-0.21501 0.78837,-0.88393 1.14671,-1.07505 -0.14334,-0.57336 -0.31057,-0.0956 c 0,0 -0.50169,0.52558 -0.59724,0.50169 -0.0956,-0.0239 -1.95898,0.21501 -1.95898,0.21501 l -1.83953,-0.57336 -0.7167,-0.38224 -1.09894,-1.19449 -0.4778,-1.33784 0.43002,-3.8224 1.93509,-1.72007 z"
       id="path95" /><path
       style="fill:#633318;fill-opacity:1;stroke-width:0.264583"
       d="m 64.513425,197.57764 -1.435883,0.64193 h -1.418993 l -0.827743,0.74328 -0.810853,1.21628 -0.11825,2.46634 0.625033,1.80753 1.013566,1.60481 1.925772,0.18582 1.875097,0.0338 0.523674,0.20272 c 0,0 0.827746,-1.67239 0.945994,-1.75685 0.11825,-0.0845 0.641927,-1.55413 0.641927,-1.55413 l 0.05068,-3.4968 -0.641927,-1.38521 -1.199385,-0.82774 z"
       id="path96" /><path
       style="fill:#bec714;fill-opacity:1;stroke-width:0.264583"
       d="m 63.922179,199.30071 -1.081135,0.47299 c 0,0 0.03378,0.67571 -0.101357,0.74328 -0.135144,0.0676 -0.168928,2.36499 -0.168928,2.36499 l 0.574355,1.31763 1.081135,0.10136 0.979781,-1.11492 0.540567,-1.55413 -0.270285,-0.97978 c 0,0 -0.371639,-1.11493 -0.506783,-1.11493 -0.135141,0 -1.04735,-0.23649 -1.04735,-0.23649 z"
       id="path97" /><path
       style="fill:#e1e1e1;fill-opacity:1;stroke-width:0.264583"
       d="m 175.92567,192.02751 0.7167,-1.9112 0.19112,-2.67568 c 0,0 -0.14334,-3.87017 -0.33446,-4.01351 -0.19112,-0.14334 -0.76448,-3.53571 -0.76448,-3.53571 l -2.53233,-3.91796 -2.05454,-2.53233 -1.48117,-0.19112 -43.52752,7.16699 -59.820459,11.03716 3.249036,0.57336 c 0,0 5.446911,-0.19112 5.63803,-0.28668 0.191119,-0.0956 7.788127,-1.1945 8.122587,-1.33784 0.334459,-0.14334 19.780886,-4.10907 19.780886,-4.10907 l 28.0946,-4.82578 36.02606,-5.87693 1.4334,-0.0956 1.14671,0.86004 2.77124,2.81902 1.6723,2.67567 1.52895,4.15686 -0.38224,4.92133 -0.19111,1.14672 z"
       id="path99" /></g></svg>
